<!--?xml version="1.0" standalone="no"?-->
              <svg id="sw-js-blob-svg" viewBox="0 0 100 100" xmlns="http://www.w3.org/2000/svg" version="1.1">
                    <defs> 
                        <linearGradient id="sw-gradient" x1="0" x2="1" y1="1" y2="0">
                            <stop id="stop1" stop-color="rgba(55, 143.396, 248, 1)" offset="0%"></stop>
                            <stop id="stop2" stop-color="rgba(55.91, 183.352, 38.883, 1)" offset="100%"></stop>
                        </linearGradient>
                    </defs>
                <path fill="url(#sw-gradient)" d="M16.5,-28.7C20.9,-26,23.8,-20.7,28.1,-15.5C32.5,-10.2,38.4,-5.1,37.8,-0.3C37.3,4.5,30.4,9,25.8,13.8C21.2,18.7,18.9,23.8,15,27.5C11.1,31.1,5.6,33.3,1.9,30C-1.7,26.6,-3.4,17.8,-10.2,15.7C-16.9,13.7,-28.7,18.5,-29.8,17.1C-31,15.6,-21.4,7.8,-17.5,2.3C-13.6,-3.3,-15.3,-6.6,-15,-9.4C-14.7,-12.3,-12.3,-14.8,-9.5,-18.3C-6.6,-21.9,-3.3,-26.5,1.4,-28.9C6,-31.2,12.1,-31.3,16.5,-28.7Z" width="100%" height="100%" transform="translate(50 50)" stroke-width="0" style="transition: all 0.3s ease 0s;"></path>
              </svg>