<!--?xml version="1.0" standalone="no"?-->
              <svg id="sw-js-blob-svg" viewBox="0 0 100 5rem" xmlns="http://www.w3.org/2000/svg" version="1.1">
                    <rect width="100%" height="100%" fill="green" /><defs> 
                        <linearGradient id="sw-gradient" x1="0" x2="1" y1="1" y2="0">
                            <stop id="stop1" stop-color="rgba(248, 117, 55, 1)" offset="0%"></stop>
                            <stop id="stop2" stop-color="rgba(101.388, 73.408, 27.225, 1)" offset="100%"></stop>
                        </linearGradient>
                    </defs>
                <path fill="url(#sw-gradient)" d="M9.5,-12.2C14.7,-9.3,23,-9.7,23.9,-7.6C24.7,-5.5,18.1,-0.9,17.3,6.8C16.4,14.5,21.3,25.3,19.4,26.1C17.5,26.9,8.7,17.7,3,13.5C-2.6,9.3,-5.3,10.1,-10.5,10.4C-15.6,10.6,-23.3,10.4,-26.1,7.2C-28.9,4.1,-26.8,-2,-22.9,-5.4C-19,-8.9,-13.4,-9.7,-9.2,-13C-5.1,-16.3,-2.6,-22,-0.2,-21.7C2.1,-21.5,4.3,-15.1,9.5,-12.2Z" width="100%" height="100%" transform="translate(50 50)" stroke-width="0" style="transition: all 0.3s ease 0s;"></path>
              </svg>