<!--?xml version="1.0" standalone="no"?-->
              <svg id="sw-js-blob-svg" viewBox="0 0 100 100" xmlns="http://www.w3.org/2000/svg" version="1.1">
                    <defs> 
                        <linearGradient id="sw-gradient" x1="0" x2="1" y1="1" y2="0">
                            <stop id="stop1" stop-color="rgba(55, 143.396, 248, 1)" offset="0%"></stop>
                            <stop id="stop2" stop-color="rgba(210.674, 54.192, 136.685, 1)" offset="100%"></stop>
                        </linearGradient>
                    </defs>
                <path fill="url(#sw-gradient)" d="M7.3,-10.7C10.3,-10.9,14.1,-10.6,18,-8.8C21.8,-6.9,25.7,-3.5,27.5,1C29.3,5.5,29,11.1,24.8,12.4C20.7,13.7,12.6,10.8,7.8,10.8C3,10.9,1.5,13.8,-0.5,14.7C-2.5,15.5,-5,14.2,-12.1,15.5C-19.2,16.8,-31,20.7,-31.6,18.6C-32.3,16.5,-21.9,8.2,-19.7,1.2C-17.6,-5.8,-23.7,-11.5,-22.7,-13C-21.6,-14.5,-13.4,-11.7,-8.4,-10.3C-3.4,-9,-1.7,-9.1,0.2,-9.5C2.1,-9.8,4.3,-10.5,7.3,-10.7Z" width="100%" height="100%" transform="translate(50 50)" stroke-width="0" style="transition: all 0.3s ease 0s;" stroke="url(#sw-gradient)"></path>
              </svg>